<svg xmlns="http://www.w3.org/2000/svg" viewBox="0 0 105.1103 84.96026" height="90.625" width="112.12"><g color="#000"><path overflow="visible" style="isolation:auto;mix-blend-mode:normal" d="M52.56 0l-.018.009a4.886 6.18 0 0 0-.038.002c-7.825.011-15.638 3.057-21.46 8.68-2.853 2.753-5.205 6.178-6.87 9.98-.499-.378-1-.747-1.496-1.131-.142-3.28-1.898-6.522-4.735-8.161C13.65 6.9 7.385 8.385 4.858 12.763a4.918 4.918 0 0 0-.002 0 9.248 9.248 0 0 0-1.15 3.619A9.229 9.229 0 0 0 1.15 19.18a4.918 4.918 0 0 0-.003.005C-1.381 23.562.468 29.728 4.76 32.206a4.918 4.918 0 0 0 .006.004c2.837 1.631 6.52 1.529 9.428.012a168.979 168.979 0 0 1 7.53 3.296 32.763 32.763 0 0 0 1.098 5.238c-1.13 4.176-.67 8.416.503 12.12a176.26 176.26 0 0 1-9.125 4.041c-2.91-1.518-6.597-1.621-9.434.019a4.918 4.918 0 0 0-.003 0c-4.291 2.475-6.14 8.645-3.61 13.021a4.918 4.918 0 0 0 .002.003c.641 1.11 1.532 2.05 2.56 2.804a9.27 9.27 0 0 0 1.147 3.61 4.918 4.918 0 0 0 .005.005c2.528 4.378 8.792 5.863 13.084 3.385a4.918 4.918 0 0 0 .005-.002c2.833-1.64 4.587-4.883 4.728-8.16a176.321 176.321 0 0 1 9.59-6.91c.329.181.647.368.99.524l1.048 2.288c1.13 2.46 2.417 3.187 3.624 3.904 1.209.716 2.486 1.214 3.94 1.635 2.905.842 6.493 1.32 10.68 1.32h.117c4.189 0 7.772-.478 10.679-1.32 1.452-.42 2.735-.919 3.94-1.635 1.208-.717 2.496-1.443 3.622-3.904l1.08-2.356c.291-.135.564-.303.843-.457a174.977 174.977 0 0 1 9.593 6.91c.142 3.28 1.893 6.52 4.725 8.158a4.918 4.918 0 0 0 .008.003c4.29 2.477 10.557.994 13.083-3.385a4.918 4.918 0 0 0 .005-.006 9.179 9.179 0 0 0 1.147-3.608 9.256 9.256 0 0 0 2.56-2.807 4.918 4.918 0 0 0 .003-.002c2.526-4.378.677-10.546-3.615-13.024-2.838-1.637-6.525-1.537-9.436-.018a174.163 174.163 0 0 1-9.126-4.042c1.175-3.709 1.633-7.953.5-12.136a32.66 32.66 0 0 0 1.097-5.222 174.87 174.87 0 0 1 7.534-3.296c2.91 1.517 6.59 1.62 9.426-.014a4.918 4.918 0 0 0 .007-.002c4.291-2.479 6.141-8.644 3.613-13.022a4.918 4.918 0 0 0-.002-.008c-.641-1.106-1.532-2.046-2.559-2.798-.14-1.267-.51-2.508-1.15-3.617a4.918 4.918 0 0 0-.002-.005c-1.608-2.787-4.731-4.59-7.901-4.687a9.82 9.82 0 0 0-5.183 1.307 4.918 4.918 0 0 0-.003 0c-2.836 1.64-4.592 4.878-4.735 8.16-.495.386-.997.752-1.495 1.132-1.665-3.803-4.018-7.226-6.869-9.981C68.23 3.049 60.4 0 52.561 0zm1.16 14.049c2.053.028 4.032.23 5.919.58 5.62 1.05 10.09 3.356 12.992 5.28 2.93 1.944 4.333 3.503 4.186 3.697-.195.257-1.919-.869-4.947-2.392-3.002-1.507-7.378-3.423-12.636-4.269a37.765 37.765 0 0 0-5.548-.48 41.477 41.477 0 0 0-8.922.864c-4.312.885-7.83 2.261-10.348 3.357-2.56 1.311-4.137 1.98-4.272 1.758s1.196-1.305 3.59-2.975c2.414-1.47 5.997-3.203 10.53-4.328a37.294 37.294 0 0 1 9.457-1.092zm-18.253 51.99c-.014-.004.037.007.025.003.012.003.019.009.032.013z"/><path overflow="visible" style="isolation:auto;mix-blend-mode:normal" d="M13.362 15.47a4.723 4.554 30 0 0-4.128 2.23 4.723 4.554 30 0 0-.129 4.212 4.723 4.554 30 0 0-3.578 2.215 4.723 4.554 30 0 0 1.81 6.306 4.723 4.554 30 0 0 6.212-1.34 178.356 178.356 0 0 1 12.886 5.628 26.964 20.585 0 0 0-.744 4.69 26.964 20.585 0 0 0 1.945 7.647 5.549 5.549 0 0 0-.784 1.455c-.88 2.51-.336 5.243 1.085 7.883.31.577.685 1.153 1.11 1.714-4.977 2.49-10.1 4.817-15.493 6.914a4.554 4.723 60 0 0-6.216-1.342 4.554 4.723 60 0 0-1.811 6.307 4.554 4.723 60 0 0 3.58 2.218 4.554 4.723 60 0 0 .131 4.21A4.554 4.723 60 0 0 15.603 78a4.554 4.723 60 0 0 1.945-6.05c4.909-3.942 9.893-7.47 14.96-10.762 1.052.613 2.25 1.11 3.65 1.396h.001l2.084 3.595c.91 1.568 6.43 3.07 14.416 3.07h.119c7.988 0 13.51-1.502 14.42-3.07l2.1-3.627a11.869 11.869 0 0 0 3.515-1.369c5.07 3.292 10.056 6.823 14.967 10.765A4.723 4.554 30 0 0 89.725 78a4.723 4.554 30 0 0 6.368-1.583 4.723 4.554 30 0 0 .128-4.205 4.723 4.554 30 0 0 3.583-2.219 4.723 4.554 30 0 0-1.812-6.306 4.723 4.554 30 0 0-6.215 1.342c-5.397-2.099-10.525-4.427-15.504-6.918.426-.563.8-1.14 1.11-1.719 1.42-2.642 1.966-5.373 1.086-7.884a5.427 5.427 0 0 0-.788-1.464 26.964 20.585 0 0 0 1.949-7.64 26.964 20.585 0 0 0-.737-4.68A178.195 178.195 0 0 1 91.782 29.1a4.554 4.723 60 0 0 6.21 1.34 4.554 4.723 60 0 0 1.815-6.304 4.554 4.723 60 0 0-3.581-2.216 4.554 4.723 60 0 0-.13-4.211 4.554 4.723 60 0 0-3.793-2.232l-.012-.008a4.554 4.723 60 0 0-2.57.65 4.554 4.723 60 0 0-1.947 6.055A177.961 177.961 0 0 1 76.8 30.278a26.964 20.585 0 0 0-24.136-11.456l-.006.006a26.964 20.585 0 0 0-24.146 11.44 177.998 177.998 0 0 1-10.964-8.094 4.723 4.554 30 0 0-1.947-6.054 4.723 4.554 30 0 0-2.24-.65z" fill="#8f8f8f" fill-rule="evenodd"/><path overflow="visible" style="isolation:auto;mix-blend-mode:normal" d="M50.732 17.868c-6.067 0-12.33.526-17.603 5.676-4.28 2.879-7.378 6.645-8.916 10.839-1.046-.144-5.664 1.79-1.06 5.618-.008.14-.014.282-.019.422.004 2.87.726 5.712 2.127 8.374a5.972 5.972 0 0 0-.858 1.591c-.964 2.748-.37 5.741 1.187 8.633s4.354 5.826 9.002 6.776h.002l2.282 3.94c.716 1.238 4.086 2.428 9.17 3.001h-.44l3.527 6.11 3.526 6.11 3.53-6.11 3.526-6.11h-.304c5.084-.573 8.452-1.763 9.169-3.001l2.3-3.97c4.56-.984 7.316-3.885 8.854-6.746 1.557-2.892 2.152-5.888 1.188-8.637a5.96 5.96 0 0 0-.863-1.598c1.402-2.66 2.126-5.5 2.133-8.367a17.263 17.263 0 0 0-.118-1.827c2.76-2.345.453-1.711-1.538-4.106-4.242-5.567-9.594-12.305-15.334-14.447-4.415-2.242-3.944-1.93-9.063-1.93zm1.273 9.072c8.101-.168 17.386 1.698 26.881 7.778l.001.011-4.77 3.967c-.765-1.557-2.182-2.146-4.03-2.163-1.936-.018-4.34.577-6.93 1.295-3.698 1.022-6.834 2.037-8.165 3.903h-6.308c-1.33-1.866-4.464-2.881-8.165-3.902-2.588-.715-4.991-1.31-6.93-1.291-1.881.017-3.322.624-4.075 2.25l-3.41-2.836c.129-.573.289-1.143.481-1.706 3.262-1.954 12.928-7.048 25.42-7.306zM79.537 40.7c-.175 2.177-.804 4.32-1.86 6.345.346.461.612.956.789 1.461.878 2.511.335 5.245-1.086 7.887-1.404 2.615-3.923 5.262-8.086 6.16l-2.1 3.625c-.91 1.569-6.43 3.07-14.419 3.07h-.12c-7.985 0-13.507-1.501-14.417-3.07l-2.081-3.593h-.004c-4.243-.87-6.8-3.548-8.219-6.188-1.42-2.639-1.968-5.376-1.086-7.886a5.537 5.537 0 0 1 .783-1.452 16.866 16.866 0 0 1-1.625-4.686l3.247 2.7c.811 4.025 3.14 8.305 6.83 9.324 4.905 1.354 10.538-3.512 12.533-7.667h6.45c1.995 4.155 7.627 9.02 12.532 7.667 3.735-1.03 6.082-5.406 6.864-9.476zm-6.676 1.026c.62 0 1.12.58 1.12 1.3v2.319c0 .721-.5 1.3-1.12 1.3-.62 0-1.117-.579-1.117-1.3v-2.318c0-.72.497-1.301 1.117-1.301zm-21.024 7.08l-.031.014c-3.025 1.494-5.476 4.804-5.475 7.39 0 2.587 2.451 3.473 5.475 1.98l.035-.015.033.015c3.023 1.492 5.475.608 5.475-1.978s-2.45-5.894-5.475-7.386l-.031-.013z"/></g></svg>