<svg xmlns="http://www.w3.org/2000/svg" height="90" width="200" viewBox="0 0 52.917 23.813"><g transform="translate(11.579 .022) scale(.28222)"><rect ry="23.798" height="84.374" width="187.5" y="-.081" x="-41.028" fill="#110029"/><rect ry="11.764" height="72.23" width="91.533" y="5.991" x="6.955" fill="#490073"/><path style="isolation:auto;mix-blend-mode:normal" d="M52.726 7.496l-.015.007a3.981 5.035 0 0 0-.03.002c-6.375.009-12.743 2.491-17.486 7.073-2.324 2.243-4.24 5.033-5.596 8.13-.406-.308-.815-.607-1.219-.92-.115-2.673-1.546-5.314-3.858-6.65-3.498-2.02-8.603-.81-10.662 2.758a4.007 4.007 0 0 0-.001 0 7.535 7.535 0 0 0-.937 2.948 7.52 7.52 0 0 0-2.083 2.28 4.007 4.007 0 0 0-.001.004c-2.06 3.566-.554 8.59 2.943 10.609a4.007 4.007 0 0 0 .005.004c2.311 1.33 5.312 1.245 7.681.01a137.68 137.68 0 0 1 6.135 2.685 26.694 26.694 0 0 0 .001.004c-.62.68-.796 1.726.596 3.127a26.694 26.694 0 0 0 .298 1.137c-.92 3.402-.545 6.857.41 9.875a143.61 143.61 0 0 1-7.435 3.292c-2.371-1.236-5.375-1.321-7.686.015a4.007 4.007 0 0 0-.003 0c-3.497 2.017-5.002 7.045-2.941 10.61a4.007 4.007 0 0 0 .002.002c.522.904 1.248 1.67 2.085 2.285a7.553 7.553 0 0 0 .936 2.94 4.007 4.007 0 0 0 .003.005c2.06 3.567 7.164 4.778 10.66 2.759a4.007 4.007 0 0 0 .005-.003c2.308-1.336 3.737-3.978 3.852-6.648a143.66 143.66 0 0 1 7.518-5.418c.38.165.782.31 1.204.437l.752 1.642c.92 2.004 1.969 2.597 2.952 3.18.985.584 2.026.99 3.21 1.333a25.55 25.55 0 0 0 3.614.746l2.3 3.983 2.872 4.979 2.877-4.979 2.306-3.995a25.486 25.486 0 0 0 3.53-.734c1.183-.342 2.229-.749 3.21-1.332.985-.585 2.034-1.176 2.951-3.181l.739-1.611c.417-.12.814-.259 1.192-.418a142.57 142.57 0 0 1 7.452 5.366c.115 2.673 1.543 5.314 3.85 6.648a4.007 4.007 0 0 0 .006.002c3.496 2.018 8.602.81 10.66-2.757a4.007 4.007 0 0 0 .005-.006 7.479 7.479 0 0 0 .934-2.94 7.542 7.542 0 0 0 2.087-2.286 4.007 4.007 0 0 0 .001-.002c2.06-3.569.553-8.595-2.944-10.614-2.312-1.334-5.316-1.252-7.688-.015a141.9 141.9 0 0 1-7.435-3.293c.957-3.022 1.33-6.48.407-9.888a26.611 26.611 0 0 0 .61-2.505c.295-.362.306-.591.133-.8a26.611 26.611 0 0 0 .151-.948 142.48 142.48 0 0 1 6.137-2.686c2.371 1.236 5.37 1.32 7.68-.012a4.007 4.007 0 0 0 .006-.002c3.496-2.02 5.003-7.043 2.944-10.61a4.007 4.007 0 0 0-.002-.006c-.522-.9-1.247-1.667-2.084-2.28-.114-1.032-.417-2.044-.938-2.948a4.007 4.007 0 0 0-.001-.003c-1.31-2.27-3.854-3.74-6.437-3.819a8.001 8.001 0 0 0-4.222 1.065 4.007 4.007 0 0 0-.003 0c-2.311 1.337-3.742 3.974-3.858 6.648-.404.315-.812.613-1.218.922-1.357-3.099-3.275-5.888-5.598-8.132-4.753-4.589-11.132-7.073-17.519-7.073zm.946 11.447a28.57 28.57 0 0 1 4.822.473c4.579.855 8.222 2.733 10.586 4.3 2.387 1.585 3.53 2.856 3.41 3.014-.159.21-1.564-.709-4.031-1.95-2.446-1.228-6.011-2.788-10.295-3.477a30.77 30.77 0 0 0-4.52-.391 33.794 33.794 0 0 0-7.27.703c-3.514.72-6.38 1.843-8.431 2.736-2.086 1.068-3.37 1.613-3.48 1.432s.974-1.064 2.925-2.424c1.967-1.198 4.885-2.61 8.578-3.527a30.386 30.386 0 0 1 7.706-.89zm-33.153 1.156a3.848 3.71 30 0 1 .268.001 3.848 3.71 30 0 1 1.825.53 3.848 3.71 30 0 1 1.587 4.932 145.03 145.03 0 0 0 7.767 5.735 16.495 16.495 0 0 0-2.154 3.777 145.32 145.32 0 0 0-8.87-3.874 3.848 3.71 30 0 1-5.063 1.092 3.848 3.71 30 0 1-1.474-5.138 3.848 3.71 30 0 1 2.915-1.805 3.848 3.71 30 0 1 .105-3.432 3.848 3.71 30 0 1 3.094-1.818zm64.579.001l.009.006a3.71 3.848 60 0 1 3.091 1.819 3.71 3.848 60 0 1 .106 3.431 3.71 3.848 60 0 1 2.918 1.805 3.71 3.848 60 0 1-1.48 5.137 3.71 3.848 60 0 1-5.059-1.092 145.19 145.19 0 0 0-9.388 4.097 115.97 115.97 0 0 0-2.6-3.3 145 145 0 0 0 8.722-6.441 3.71 3.848 60 0 1 1.586-4.932 3.71 3.848 60 0 1 2.095-.53zm-31.576 9.34c6.298.072 13.4 1.699 20.654 6.343v.009l-3.886 3.234c-.623-1.269-1.778-1.75-3.284-1.763-1.577-.015-3.535.47-5.645 1.056-3.013.833-5.57 1.659-6.654 3.18h-5.14c-1.083-1.521-3.636-2.348-6.652-3.18-2.108-.583-4.067-1.067-5.646-1.052-1.533.014-2.706.509-3.32 1.834l-2.761-2.298a21.97 16.772 0 0 1 .085-.416c.02-.077.037-.155.058-.231a21.97 16.772 0 0 1 .071-.244c.051-.171.102-.343.16-.513 2.658-1.592 10.534-5.742 20.712-5.952.413-.009.829-.011 1.249-.006zm21.184 11.217c-.034.423-.093.845-.169 1.264a21.97 16.772 0 0 1-.033.166 13.22 13.22 0 0 1-.28 1.175 21.97 16.772 0 0 1-.1.296 14.13 14.13 0 0 1-.932 2.269c.132.176.247.36.35.546a4.422 4.422 0 0 1 .037.07c.1.189.186.38.254.574.537 1.535.423 3.172-.157 4.803a11.744 11.744 0 0 1-1.163 2.36c-.103.159-.218.315-.331.471a9.598 9.598 0 0 1-2.954 2.696l-.008.005a9.67 9.67 0 0 1-.813.423c-.083.038-.171.072-.257.108a9.67 9.67 0 0 1-1.518.513c-.08.02-.157.04-.237.058a9.67 9.67 0 0 1-.032.008v.001h-.003l-1.71 2.954c-.279.48-1.084.951-2.327 1.353-.828.268-1.85.506-3.037.694-.595.094-1.232.176-1.907.243-1.349.135-2.85.21-4.477.21h-.099c-1.507 0-2.892-.07-4.162-.187-.1-.01-.212-.013-.31-.023h-.003a33.464 33.464 0 0 1-1.902-.243h-.003c-.228-.036-.418-.081-.633-.12-.347-.065-.708-.126-1.022-.198a16.458 16.458 0 0 1-1.381-.376c-1.243-.402-2.048-.874-2.326-1.353l-1.698-2.928h-.004a9.801 9.801 0 0 1-.81-.203l-.029-.01a9.534 9.534 0 0 1-.647-.222c-.111-.04-.215-.087-.323-.13a10.126 10.126 0 0 1-1.162-.574l-.003.002a9.574 9.574 0 0 1-2.82-2.508l.003-.002a10.772 10.772 0 0 1-.904-1.396c-1.157-2.151-1.601-4.378-.884-6.423a4.521 4.521 0 0 1 .638-1.184 21.97 16.772 0 0 1-.62-1.374 13.742 13.742 0 0 1-.299-.866 21.97 16.772 0 0 1-.141-.456 13.742 13.742 0 0 1-.262-1.095 21.97 16.772 0 0 1-.004-.025l2.644 2.197c.66 3.28 2.558 6.768 5.564 7.598 3.997 1.103 8.587-2.862 10.212-6.248h5.256c1.626 3.386 6.214 7.35 10.21 6.248 3.043-.839 4.956-4.406 5.593-7.722zm-5.44.837c.506 0 .913.473.913 1.06v1.888c0 .588-.407 1.06-.913 1.06s-.91-.472-.91-1.06v-1.888c0-.587.405-1.06.91-1.06zm-17.13 5.768l-.025.012c-2.465 1.217-4.461 3.914-4.46 6.021 0 2.108 1.996 2.83 4.46 1.613l.03-.012.027.012c2.463 1.215 4.46.496 4.46-1.611s-1.996-4.803-4.46-6.019l-.026-.01zm-21.094 8.813a10.963 10.963 0 0 0 2.681 3.046 143.8 143.8 0 0 0-9.524 6.998 3.71 3.848 60 0 1-1.584 4.93 3.71 3.848 60 0 1-5.188-1.29 3.71 3.848 60 0 1-.105-3.43 3.71 3.848 60 0 1-2.917-1.807 3.71 3.848 60 0 1 1.475-5.138 3.71 3.848 60 0 1 5.065 1.092 143.3 143.3 0 0 0 10.097-4.401zm43.532.003A143.64 143.64 0 0 0 84.68 60.48a3.848 3.71 30 0 1 5.064-1.093 3.848 3.71 30 0 1 1.477 5.138 3.848 3.71 30 0 1-2.92 1.808 3.848 3.71 30 0 1-.104 3.427 3.848 3.71 30 0 1-5.189 1.289 3.848 3.71 30 0 1-1.584-4.931 143.89 143.89 0 0 0-9.527-6.998 10.951 10.951 0 0 0 2.679-3.042z"/><path d="M-17.176 16.326a4.353 3.85 0 0 0-4.352 3.85 4.353 3.85 0 0 0 4.352 3.85 4.353 3.85 0 0 0 4.352-3.85 4.353 3.85 0 0 0-4.352-3.85zm140.61 0a4.353 3.85 0 0 0-4.352 3.85 4.353 3.85 0 0 0 4.352 3.85 4.353 3.85 0 0 0 4.352-3.85 4.353 3.85 0 0 0-4.352-3.85zm-152.38 21.469a4.353 3.85 0 0 0-4.354 3.85 4.353 3.85 0 0 0 4.354 3.85 4.353 3.85 0 0 0 4.352-3.85 4.353 3.85 0 0 0-4.352-3.85zm22.727 0a4.353 3.85 0 0 0-4.352 3.85 4.353 3.85 0 0 0 4.352 3.85 4.353 3.85 0 0 0 4.354-3.85 4.353 3.85 0 0 0-4.354-3.85zm117.88 0a4.353 3.85 0 0 0-4.354 3.85 4.353 3.85 0 0 0 4.354 3.85 4.353 3.85 0 0 0 4.352-3.85 4.353 3.85 0 0 0-4.352-3.85zm22.727 0a4.353 3.85 0 0 0-4.352 3.85 4.353 3.85 0 0 0 4.352 3.85 4.353 3.85 0 0 0 4.354-3.85 4.353 3.85 0 0 0-4.354-3.85zm-151.57 22.391a4.353 3.85 0 0 0-4.352 3.85 4.353 3.85 0 0 0 4.352 3.851 4.353 3.85 0 0 0 4.352-3.85 4.353 3.85 0 0 0-4.352-3.851zm140.61 0a4.353 3.85 0 0 0-4.352 3.85 4.353 3.85 0 0 0 4.352 3.851 4.353 3.85 0 0 0 4.352-3.85 4.353 3.85 0 0 0-4.352-3.851z" fill="#b26600"/></g></svg>