<svg xmlns="http://www.w3.org/2000/svg" height="90" width="200" viewBox="0 0 52.917 23.813"><rect ry="5.976" height="21.189" width="47.086" y="1.311" x="2.915" fill="#47544d"/><rect ry="2.954" height="18.139" width="22.986" y="2.836" x="14.965" fill="#e57434"/><path style="isolation:auto;mix-blend-mode:normal" d="M26.459 3.214l-.004.001a1 1.264 0 0 0-.008 0 6.368 6.368 0 0 0-4.39 1.777 6.438 6.438 0 0 0-1.406 2.042c-.101-.077-.205-.153-.306-.231-.029-.671-.388-1.335-.968-1.67-.879-.508-2.161-.203-2.678.693a1.893 1.893 0 0 0-.235.74 1.888 1.888 0 0 0-.523.572 1.006 1.006 0 0 0 0 .001c-.518.896-.14 2.157.738 2.664a1.006 1.006 0 0 0 .002.001c.58.335 1.334.313 1.929.003a34.575 34.575 0 0 1 1.54.674 6.704 6.704 0 0 0 0 .001c-.155.171-.2.434.15.786a6.704 6.704 0 0 0 .075.285c-.231.854-.137 1.722.103 2.48a36.065 36.065 0 0 1-1.867.827c-.596-.311-1.35-.332-1.93.004-.879.506-1.257 1.769-.74 2.664.133.228.314.42.525.574a1.897 1.897 0 0 0 .235.738 1.006 1.006 0 0 0 0 .002c.518.895 1.799 1.2 2.678.692.58-.336.939-.999.968-1.67a36.077 36.077 0 0 1 1.888-1.36 2.9 2.9 0 0 0 .302.11l.189.412c.231.503.495.652.741.798.247.147.51.25.806.335a6.416 6.416 0 0 0 .907.187l.579 1 .72 1.25.723-1.25.578-1.003a6.4 6.4 0 0 0 .887-.185c.298-.085.56-.188.807-.335.247-.146.51-.294.74-.798l.186-.405a2.687 2.687 0 0 0 .3-.105 35.803 35.803 0 0 1 1.871 1.349c.029.67.387 1.334.966 1.669a1.006 1.006 0 0 0 .002 0c.879.507 2.16.204 2.677-.692a1.006 1.006 0 0 0 .002-.001 1.877 1.877 0 0 0 .234-.739 1.893 1.893 0 0 0 .525-.574c.517-.897.139-2.16-.74-2.666-.58-.335-1.334-.315-1.93-.004a35.635 35.635 0 0 1-1.868-.826c.24-.76.334-1.628.103-2.483a6.683 6.683 0 0 0 .153-.63c.074-.09.076-.147.033-.2a6.683 6.683 0 0 0 .038-.238 35.781 35.781 0 0 1 1.541-.675c.596.31 1.35.332 1.928-.003a1.006 1.006 0 0 0 .002 0c.878-.507 1.257-1.768.74-2.664a1.006 1.006 0 0 0 0-.001 1.89 1.89 0 0 0-.522-.573 1.91 1.91 0 0 0-.236-.74 1.971 1.971 0 0 0-1.618-.96 2.01 2.01 0 0 0-1.06.267c-.581.336-.94.998-.97 1.67-.1.078-.203.154-.305.231A6.425 6.425 0 0 0 30.86 4.99a6.368 6.368 0 0 0-4.4-1.776zm.238 2.874a7.175 7.175 0 0 1 1.21.12 7.291 7.291 0 0 1 2.659 1.079c.6.398.887.717.856.756-.04.054-.393-.178-1.012-.49-.614-.307-1.51-.699-2.585-.871a7.727 7.727 0 0 0-1.135-.099 8.486 8.486 0 0 0-1.825.176 10.562 10.562 0 0 0-2.117.687c-.524.269-.847.406-.874.36-.028-.045.245-.267.734-.609a7.789 7.789 0 0 1 2.154-.885 7.63 7.63 0 0 1 1.936-.224zm-8.326.29a.966.932 30 0 1 .067 0 .966.932 30 0 1 .457.134.966.932 30 0 1 .4 1.238 36.421 36.421 0 0 0 1.95 1.441 4.142 4.142 0 0 0-.542.949 36.494 36.494 0 0 0-2.227-.974.966.932 30 0 1-1.27.274.966.932 30 0 1-.372-1.29.966.932 30 0 1 .733-.453.966.932 30 0 1 .026-.862.966.932 30 0 1 .777-.457zm16.217 0l.002.002a.932.966 60 0 1 .776.457.932.966 60 0 1 .027.862.932.966 60 0 1 .733.454.932.966 60 0 1-.373 1.289.932.966 60 0 1-1.271-.274 36.462 36.462 0 0 0-2.357 1.029 29.123 29.123 0 0 0-.653-.829 36.413 36.413 0 0 0 2.19-1.618.932.966 60 0 1 .399-1.238.932.966 60 0 1 .525-.134zm-7.93 2.347c1.582.018 3.366.426 5.188 1.593v.001l-.977.813c-.156-.319-.446-.44-.824-.443-.396-.004-.888.118-1.418.265-.756.209-1.398.417-1.67.799h-1.29c-.274-.383-.915-.59-1.672-.8-.53-.145-1.021-.266-1.418-.263-.385.003-.68.128-.834.46l-.693-.577a5.517 4.212 0 0 1 .021-.104c.005-.02.009-.04.015-.058a5.517 4.212 0 0 1 .018-.061c.012-.043.025-.087.04-.13.667-.4 2.646-1.44 5.201-1.494.104-.002.208-.003.314-.001zm5.32 2.816a3.45 3.45 0 0 1-.042.318 5.517 4.212 0 0 1-.009.042 3.32 3.32 0 0 1-.07.294 5.517 4.212 0 0 1-.025.075 3.549 3.549 0 0 1-.234.57c.034.044.062.09.089.136a1.11 1.11 0 0 1 .009.018c.025.048.046.095.063.144.135.386.107.797-.04 1.207a2.949 2.949 0 0 1-.291.593c-.027.04-.055.079-.084.118a2.41 2.41 0 0 1-.741.676l-.003.002a2.43 2.43 0 0 1-.205.106l-.064.027a2.43 2.43 0 0 1-.38.129l-.06.014a2.43 2.43 0 0 1-.008.002l-.43.742c-.071.12-.272.24-.585.34a5.117 5.117 0 0 1-.762.174 8.15 8.15 0 0 1-.479.06 11.12 11.12 0 0 1-1.125.054h-.025c-.378 0-.726-.018-1.044-.047l-.079-.007a8.403 8.403 0 0 1-.478-.06c-.058-.01-.105-.021-.16-.031-.087-.016-.178-.032-.256-.05a4.133 4.133 0 0 1-.347-.094c-.312-.1-.514-.22-.585-.34l-.426-.735a2.461 2.461 0 0 1-.204-.05l-.008-.003a2.394 2.394 0 0 1-.16-.055l-.082-.033a2.543 2.543 0 0 1-.291-.144 2.404 2.404 0 0 1-.71-.629h.001a2.705 2.705 0 0 1-.225-.35c-.29-.542-.4-1.1-.222-1.614a1.135 1.135 0 0 1 .16-.297 5.517 4.212 0 0 1-.155-.345 3.45 3.45 0 0 1-.075-.217 5.517 4.212 0 0 1-.036-.115 3.45 3.45 0 0 1-.065-.275 5.517 4.212 0 0 1 0-.006l.662.551c.167.824.643 1.7 1.397 1.908 1.005.278 2.157-.718 2.566-1.569h1.32c.408.85 1.56 1.846 2.563 1.57.765-.21 1.246-1.107 1.405-1.94zm-1.366.21c.127 0 .23.12.23.267v.473c0 .148-.103.267-.23.267s-.228-.119-.228-.267v-.473c0-.147.101-.266.228-.266zM26.31 13.2l-.006.003c-.62.305-1.121.983-1.12 1.512 0 .53.5.711 1.12.405l.007-.003.007.003c.619.305 1.12.125 1.12-.405s-.501-1.206-1.12-1.51l-.006-.004zm-5.297 2.213a2.753 2.753 0 0 0 .674.765 36.112 36.112 0 0 0-2.392 1.757.932.966 60 0 1-.398 1.238.932.966 60 0 1-1.303-.324.932.966 60 0 1-.027-.861.932.966 60 0 1-.732-.454.932.966 60 0 1 .37-1.29.932.966 60 0 1 1.273.275 35.986 35.986 0 0 0 2.535-1.105zm10.932 0a36.072 36.072 0 0 0 2.538 1.107.966.932 30 0 1 1.273-.275.966.932 30 0 1 .37 1.29.966.932 30 0 1-.733.454.966.932 30 0 1-.027.861.966.932 30 0 1-1.303.323.966.932 30 0 1-.398-1.238 36.135 36.135 0 0 0-2.392-1.757 2.75 2.75 0 0 0 .673-.764z" fill="#0f2834"/><path d="M8.905 5.431a1.093.967 0 0 0-1.093.967 1.093.967 0 0 0 1.093.967 1.093.967 0 0 0 1.093-.967 1.093.967 0 0 0-1.093-.967zm35.311 0a1.093.967 0 0 0-1.093.967 1.093.967 0 0 0 1.093.967 1.093.967 0 0 0 1.093-.967 1.093.967 0 0 0-1.093-.967zM5.95 10.823a1.093.967 0 0 0-1.094.966 1.093.967 0 0 0 1.094.968 1.093.967 0 0 0 1.093-.968 1.093.967 0 0 0-1.093-.966zm5.708 0a1.093.967 0 0 0-1.094.966 1.093.967 0 0 0 1.094.968 1.093.967 0 0 0 1.093-.968 1.093.967 0 0 0-1.094-.966zm29.603 0a1.093.967 0 0 0-1.095.967 1.093.967 0 0 0 1.095.967 1.093.967 0 0 0 1.092-.967 1.093.967 0 0 0-1.092-.967zm5.707 0a1.093.967 0 0 0-1.094.967 1.093.967 0 0 0 1.094.967 1.093.967 0 0 0 1.093-.967 1.093.967 0 0 0-1.093-.967zM8.903 16.446a1.093.967 0 0 0-1.095.966 1.093.967 0 0 0 1.094.968 1.093.967 0 0 0 1.093-.967 1.093.967 0 0 0-1.093-.967zm35.31 0a1.093.967 0 0 0-1.093.967 1.093.967 0 0 0 1.094.967 1.093.967 0 0 0 1.093-.967 1.093.967 0 0 0-1.093-.967z" fill="#ff9000"/></svg>