<svg xmlns="http://www.w3.org/2000/svg" height="90" width="200" viewBox="0 0 52.917 23.813"><rect ry="6.716" height="23.812" width="52.916" y="-.001" fill="#47544d"/><rect ry="3.32" height="20.385" width="25.832" y="1.713" x="13.542" fill="#e57434"/><path d="M26.459 2.138l-.004.001a1.123 1.421 0 0 0-.009.001 7.156 7.156 0 0 0-4.935 1.996 7.235 7.235 0 0 0-1.579 2.295c-.114-.087-.23-.172-.344-.26-.032-.754-.436-1.5-1.088-1.877-.988-.57-2.428-.228-3.009.779a2.127 2.127 0 0 0-.264.832 2.122 2.122 0 0 0-.588.643 1.13 1.13 0 0 0 0 .001c-.582 1.007-.157 2.424.83 2.994a1.13 1.13 0 0 0 .002.001c.652.376 1.499.352 2.167.003a38.856 38.856 0 0 1 1.732.758 7.534 7.534 0 0 0 0 .001c-.175.192-.225.487.168.883a7.534 7.534 0 0 0 .084.32c-.26.96-.154 1.936.116 2.787a40.53 40.53 0 0 1-2.098.93c-.67-.35-1.517-.373-2.17.004-.987.569-1.412 1.988-.83 2.994.148.256.352.472.589.645a2.132 2.132 0 0 0 .264.83 1.13 1.13 0 0 0 0 .002c.582 1.006 2.022 1.348 3.01.778.652-.378 1.055-1.123 1.088-1.877a40.544 40.544 0 0 1 2.121-1.529c.108.047.221.088.34.123l.212.464c.26.565.556.733.833.897.278.165.572.28.906.376a7.21 7.21 0 0 0 1.02.211l.65 1.124.81 1.405.812-1.405.65-1.127a7.193 7.193 0 0 0 .997-.208c.334-.096.629-.211.906-.376.278-.165.574-.331.833-.897l.208-.455a3.02 3.02 0 0 0 .337-.118 40.236 40.236 0 0 1 2.103 1.515c.032.754.435 1.5 1.086 1.876a1.13 1.13 0 0 0 .002 0c.987.57 2.428.229 3.008-.778a1.13 1.13 0 0 0 .002-.001 2.11 2.11 0 0 0 .263-.83 2.128 2.128 0 0 0 .59-.645c.581-1.008.156-2.427-.831-2.996-.653-.377-1.5-.354-2.17-.005a40.047 40.047 0 0 1-2.098-.929c.27-.853.375-1.829.115-2.79a7.51 7.51 0 0 0 .172-.708c.083-.102.086-.166.037-.225a7.51 7.51 0 0 0 .043-.268 40.211 40.211 0 0 1 1.732-.758c.67.349 1.516.373 2.167-.003a1.13 1.13 0 0 0 .002 0c.987-.57 1.412-1.988.831-2.994a1.13 1.13 0 0 0 0-.002 2.124 2.124 0 0 0-.587-.643 2.147 2.147 0 0 0-.265-.832 1.13 1.13 0 0 0 0-.001 2.215 2.215 0 0 0-1.818-1.078 2.258 2.258 0 0 0-1.191.3 1.13 1.13 0 0 0-.001 0c-.653.378-1.057 1.122-1.09 1.877-.113.088-.228.173-.343.26a7.221 7.221 0 0 0-1.58-2.295 7.156 7.156 0 0 0-4.944-1.996zm.267 3.23a8.063 8.063 0 0 1 1.36.134 8.194 8.194 0 0 1 2.988 1.213c.674.447.997.806.963.85-.045.06-.442-.2-1.138-.55-.69-.346-1.696-.786-2.905-.98a8.684 8.684 0 0 0-1.276-.111 9.537 9.537 0 0 0-2.05.198 11.87 11.87 0 0 0-2.38.772c-.589.302-.951.456-.982.404-.031-.05.275-.3.825-.684a8.753 8.753 0 0 1 2.421-.995 8.575 8.575 0 0 1 2.175-.251zm-9.356.326a1.086 1.047 30 0 1 .075 0 1.086 1.047 30 0 1 .515.15 1.086 1.047 30 0 1 .448 1.392A40.93 40.93 0 0 0 20.6 8.855a4.655 4.655 0 0 0-.608 1.066 41.012 41.012 0 0 0-2.503-1.094 1.086 1.047 30 0 1-1.429.308 1.086 1.047 30 0 1-.416-1.45 1.086 1.047 30 0 1 .823-.509 1.086 1.047 30 0 1 .03-.969 1.086 1.047 30 0 1 .873-.513zm18.225 0l.002.002a1.047 1.086 60 0 1 .872.514 1.047 1.086 60 0 1 .03.968 1.047 1.086 60 0 1 .824.51 1.047 1.086 60 0 1-.418 1.449 1.047 1.086 60 0 1-1.428-.308 40.976 40.976 0 0 0-2.649 1.156 32.729 32.729 0 0 0-.734-.931 40.922 40.922 0 0 0 2.461-1.818 1.047 1.086 60 0 1 .448-1.392 1.047 1.086 60 0 1 .591-.15zm-8.912 2.637c1.778.02 3.782.479 5.83 1.79v.002l-1.098.913c-.175-.358-.501-.494-.926-.498-.445-.004-.998.133-1.593.298-.85.235-1.572.469-1.878.898h-1.45c-.307-.43-1.027-.663-1.878-.898-.595-.164-1.148-.3-1.594-.297-.432.004-.763.144-.937.518l-.779-.649a6.2 4.733 0 0 1 .024-.117c.006-.022.01-.044.017-.065a6.2 4.733 0 0 1 .02-.069c.014-.048.028-.097.045-.145.75-.45 2.973-1.62 5.845-1.68.117-.002.234-.003.353-.001zm5.979 3.165c-.01.12-.027.239-.048.357a6.2 4.733 0 0 1-.01.047 3.73 3.73 0 0 1-.078.331 6.2 4.733 0 0 1-.029.084 3.988 3.988 0 0 1-.263.64c.038.05.07.102.1.154a1.248 1.248 0 0 1 .01.02c.028.054.052.107.071.162.152.433.12.895-.044 1.356a3.314 3.314 0 0 1-.328.666c-.03.045-.062.089-.094.133a2.709 2.709 0 0 1-.833.76l-.003.002a2.73 2.73 0 0 1-.23.12l-.072.03a2.73 2.73 0 0 1-.428.145l-.067.016a2.73 2.73 0 0 1-.009.002l-.483.834c-.08.136-.306.269-.657.382a5.751 5.751 0 0 1-.857.196 9.16 9.16 0 0 1-.538.068c-.381.039-.805.06-1.264.06h-.028c-.425 0-.816-.02-1.174-.053L25.218 18a9.444 9.444 0 0 1-.538-.068c-.065-.01-.118-.023-.179-.034-.098-.018-.2-.036-.288-.056a4.645 4.645 0 0 1-.39-.106c-.351-.113-.578-.247-.657-.382l-.479-.826a2.766 2.766 0 0 1-.23-.057l-.008-.003a2.69 2.69 0 0 1-.18-.061l-.092-.037a2.858 2.858 0 0 1-.328-.162 2.702 2.702 0 0 1-.797-.707h.001a3.04 3.04 0 0 1-.256-.394c-.326-.608-.45-1.236-.249-1.813a1.276 1.276 0 0 1 .18-.334 6.2 4.733 0 0 1-.175-.388 3.878 3.878 0 0 1-.084-.244 6.2 4.733 0 0 1-.04-.129 3.878 3.878 0 0 1-.074-.309 6.2 4.733 0 0 1 0-.007l.745.62c.187.926.722 1.91 1.57 2.144 1.129.312 2.424-.807 2.883-1.763h1.483c.459.956 1.754 2.074 2.881 1.763.86-.236 1.4-1.243 1.579-2.179zm-1.536.236c.143 0 .258.134.258.3v.532c0 .166-.115.3-.258.3-.142 0-.256-.134-.256-.3v-.532c0-.165.114-.299.256-.299zm-4.834 1.628l-.007.004c-.696.343-1.26 1.104-1.259 1.699 0 .595.563.799 1.259.455l.008-.003.008.003c.695.343 1.259.14 1.259-.455s-.564-1.355-1.259-1.698l-.007-.003zm-5.953 2.487a3.094 3.094 0 0 0 .757.86 40.583 40.583 0 0 0-2.688 1.975 1.047 1.086 60 0 1-.447 1.391 1.047 1.086 60 0 1-1.465-.364 1.047 1.086 60 0 1-.03-.968 1.047 1.086 60 0 1-.822-.51 1.047 1.086 60 0 1 .416-1.45 1.047 1.086 60 0 1 1.43.309 40.442 40.442 0 0 0 2.849-1.242zm12.286.001a40.538 40.538 0 0 0 2.852 1.243 1.086 1.047 30 0 1 1.43-.309 1.086 1.047 30 0 1 .416 1.45 1.086 1.047 30 0 1-.824.51 1.086 1.047 30 0 1-.03.968 1.086 1.047 30 0 1-1.464.363 1.086 1.047 30 0 1-.447-1.391 40.609 40.609 0 0 0-2.689-1.975 3.09 3.09 0 0 0 .757-.859z" style="isolation:auto;mix-blend-mode:normal" fill="#0f2834"/><path d="M6.732 4.63a1.228 1.087 0 0 0-1.229 1.086 1.228 1.087 0 0 0 1.229 1.087A1.228 1.087 0 0 0 7.96 5.716a1.228 1.087 0 0 0-1.228-1.087zm39.683 0a1.228 1.087 0 0 0-1.229 1.086 1.228 1.087 0 0 0 1.229 1.087 1.228 1.087 0 0 0 1.228-1.087 1.228 1.087 0 0 0-1.228-1.087zM3.41 10.689a1.228 1.087 0 0 0-1.23 1.086 1.228 1.087 0 0 0 1.23 1.087 1.228 1.087 0 0 0 1.228-1.087 1.228 1.087 0 0 0-1.228-1.086zm6.414 0a1.228 1.087 0 0 0-1.229 1.086 1.228 1.087 0 0 0 1.229 1.087 1.228 1.087 0 0 0 1.229-1.087 1.228 1.087 0 0 0-1.23-1.086zm33.268 0a1.228 1.087 0 0 0-1.23 1.087 1.228 1.087 0 0 0 1.23 1.086 1.228 1.087 0 0 0 1.228-1.086 1.228 1.087 0 0 0-1.228-1.087zm6.414 0a1.228 1.087 0 0 0-1.229 1.087 1.228 1.087 0 0 0 1.229 1.086 1.228 1.087 0 0 0 1.228-1.086 1.228 1.087 0 0 0-1.228-1.087zM6.73 17.008a1.228 1.087 0 0 0-1.23 1.086 1.228 1.087 0 0 0 1.229 1.087 1.228 1.087 0 0 0 1.228-1.086 1.228 1.087 0 0 0-1.228-1.087zm39.683 0a1.228 1.087 0 0 0-1.229 1.087 1.228 1.087 0 0 0 1.229 1.086 1.228 1.087 0 0 0 1.228-1.086 1.228 1.087 0 0 0-1.228-1.087z" fill="#ff9000"/></svg>