<svg xmlns="http://www.w3.org/2000/svg" height="140" width="200" viewBox="0 0 52.917 37.042"><path d="M0 0v37.043h52.918V0H0zm16.863 8.329h19.193a3.31 3.31 0 0 1 3.318 3.32v13.746a3.31 3.31 0 0 1-3.318 3.318h-3.98c.13.223.196.506.196.866 0 .426-.09.754-.273.986-.185.23-.447.344-.785.344-.336 0-.598-.116-.78-.344-.186-.232-.279-.56-.279-.986 0-.36.069-.646.199-.866h-.895v1.199h.368v.481h-.368v.466h-.627v-.466h-1.14v-.568l.746-1.112h-1.73v1.688h.584v.458h-1.797v-.458h.586V28.74l-.602.124v-.15h-3.036c.13.222.198.505.198.865 0 .426-.092.754-.276.986-.184.23-.445.344-.782.344-.34 0-.6-.116-.784-.344-.183-.232-.276-.56-.276-.986 0-.36.069-.646.198-.866h-.731c.13.223.197.506.197.866 0 .426-.091.754-.275.986-.184.23-.444.344-.782.344-.339 0-.6-.116-.784-.344-.184-.232-.275-.56-.275-.986 0-.36.068-.646.197-.866h-.742a.683.683 0 0 1 .054.3.756.756 0 0 1-.11.394c-.071.119-.224.28-.455.484l-.55.481h1.132v.487h-1.87v-.487l.94-.825a.896.896 0 0 0 .185-.225.46.46 0 0 0 .061-.225c0-.122-.041-.217-.122-.291s-.188-.111-.322-.111a.999.999 0 0 0-.34.069 2.06 2.06 0 0 0-.394.195v-.444a3.308 3.308 0 0 1-2.192-3.12V11.649c0-1.84 1.48-3.32 3.32-3.32zm9.592.425a1.123 1.421 0 0 0-.007.002 7.156 7.156 0 0 0-4.937 1.996 7.235 7.235 0 0 0-1.577 2.294c-.114-.087-.23-.17-.345-.26-.032-.753-.436-1.5-1.088-1.876-.988-.57-2.428-.228-3.01.78a2.127 2.127 0 0 0-.264.83 2.122 2.122 0 0 0-.588.644c-.582 1.008-.157 2.424.83 2.994a1.13 1.13 0 0 0 .002.001c.652.376 1.5.353 2.168.004a38.858 38.858 0 0 1 1.731.758c-.175.193-.225.488.168.884a7.534 7.534 0 0 0 .086.32c-.26.96-.156 1.936.114 2.787a40.53 40.53 0 0 1-2.097.93c-.67-.35-1.518-.373-2.17.003-.988.57-1.413 1.99-.83 2.996a2.1 2.1 0 0 0 .59.644 2.132 2.132 0 0 0 .264.83 1.13 1.13 0 0 0 0 .002c.581 1.007 2.02 1.349 3.01.777.65-.378 1.054-1.123 1.088-1.877a40.546 40.546 0 0 1 2.12-1.527c.107.047.221.088.34.123l.211.463c.26.565.556.733.833.897.278.165.572.28.906.376a7.21 7.21 0 0 0 1.02.21l.65 1.126.81 1.405.815-1.405.648-1.129a7.193 7.193 0 0 0 .997-.207c.334-.095.63-.21.905-.376.28-.165.574-.331.834-.897l.206-.455a3.02 3.02 0 0 0 .339-.117 40.236 40.236 0 0 1 2.103 1.513c.032.754.434 1.501 1.085 1.877a1.13 1.13 0 0 0 .003 0c.987.572 2.429.23 3.008-.778a1.13 1.13 0 0 0 .003 0 2.11 2.11 0 0 0 .262-.83 2.128 2.128 0 0 0 .59-.645c.582-1.009.156-2.428-.831-2.997-.654-.377-1.5-.353-2.17-.004a40.048 40.048 0 0 1-2.098-.93c.27-.853.376-1.829.117-2.79a7.51 7.51 0 0 0 .172-.708c.082-.102.084-.165.037-.224a7.51 7.51 0 0 0 .042-.269 40.212 40.212 0 0 1 1.73-.759c.67.35 1.516.374 2.17-.002.987-.57 1.413-1.988.83-2.994a1.13 1.13 0 0 0 0-.002 2.124 2.124 0 0 0-.587-.643 2.147 2.147 0 0 0-.264-.832 2.215 2.215 0 0 0-1.818-1.079 2.258 2.258 0 0 0-1.19.3 1.13 1.13 0 0 0-.003 0c-.654.377-1.056 1.121-1.09 1.876-.111.088-.228.174-.342.26a7.221 7.221 0 0 0-1.58-2.294 7.156 7.156 0 0 0-4.944-1.996h-.007zm.274 3.23a8.063 8.063 0 0 1 1.357.134 8.194 8.194 0 0 1 2.987 1.213c.675.447 1 .806.966.85-.045.06-.442-.2-1.138-.55-.69-.346-1.698-.786-2.907-.98a8.684 8.684 0 0 0-1.276-.11 9.537 9.537 0 0 0-2.049.197 11.87 11.87 0 0 0-2.38.772c-.59.302-.95.456-.982.404-.03-.05.276-.3.825-.684a8.753 8.753 0 0 1 2.42-.995 8.575 8.575 0 0 1 2.177-.25zm-9.359.325v.001a1.086 1.047 30 0 1 .075 0 1.086 1.047 30 0 1 .516.15 1.086 1.047 30 0 1 .448 1.392A40.93 40.93 0 0 0 20.6 15.47a4.655 4.655 0 0 0-.607 1.066 41.011 41.011 0 0 0-2.504-1.094 1.086 1.047 30 0 1-1.429.308 1.086 1.047 30 0 1-.416-1.45 1.086 1.047 30 0 1 .824-.51 1.086 1.047 30 0 1 .03-.968 1.086 1.047 30 0 1 .872-.513zm18.225.001l.003.002a1.047 1.086 60 0 1 .873.515 1.047 1.086 60 0 1 .03.967 1.047 1.086 60 0 1 .825.51 1.047 1.086 60 0 1-.418 1.45 1.047 1.086 60 0 1-1.43-.309 40.977 40.977 0 0 0-2.65 1.156 32.73 32.73 0 0 0-.733-.93 40.921 40.921 0 0 0 2.46-1.819 1.047 1.086 60 0 1 .448-1.392 1.047 1.086 60 0 1 .592-.15zm-8.911 2.637c1.778.02 3.783.48 5.831 1.79v.003l-1.1.912c-.175-.358-.5-.494-.926-.498-.445-.004-.995.133-1.59.298-.853.235-1.572.47-1.88.898h-1.45c-.307-.43-1.026-.663-1.877-.898-.595-.164-1.15-.3-1.596-.297-.432.004-.762.144-.935.518l-.781-.65a6.2 4.733 0 0 1 .025-.116c.006-.022.01-.044.018-.065a6.2 4.733 0 0 1 .02-.069 2.47 2.47 0 0 1 .045-.145c.75-.45 2.971-1.62 5.843-1.68.117-.002.234-.003.353 0zm5.98 3.166c-.011.12-.03.238-.048.356a6.2 4.733 0 0 1-.01.047 3.73 3.73 0 0 1-.08.33 6.2 4.733 0 0 1-.026.085 3.988 3.988 0 0 1-.265.64c.04.05.071.102.1.154a1.248 1.248 0 0 1 .011.02 1.2 1.2 0 0 1 .069.162c.153.433.122.895-.042 1.356a3.314 3.314 0 0 1-.329.666 3.97 3.97 0 0 1-.092.133 2.71 2.71 0 0 1-.834.76l-.002.003a2.73 2.73 0 0 1-.23.12l-.075.03a2.73 2.73 0 0 1-.428.145l-.066.015a2.73 2.73 0 0 1-.01.002l-.482.834c-.08.136-.307.27-.657.383a5.751 5.751 0 0 1-.857.195 9.16 9.16 0 0 1-.537.068c-.381.04-.804.06-1.265.06h-.026c-.426 0-.818-.02-1.176-.053l-.088-.008a9.444 9.444 0 0 1-.539-.068c-.065-.01-.118-.023-.179-.034-.098-.018-.2-.035-.286-.056a4.645 4.645 0 0 1-.39-.105c-.352-.113-.578-.248-.657-.383l-.48-.826a2.766 2.766 0 0 1-.23-.056l-.009-.004a2.69 2.69 0 0 1-.18-.06l-.09-.038a2.858 2.858 0 0 1-.33-.161 2.702 2.702 0 0 1-.797-.707h.001a3.04 3.04 0 0 1-.255-.395c-.326-.608-.45-1.236-.25-1.813a1.276 1.276 0 0 1 .18-.334 6.2 4.733 0 0 1-.175-.388 3.878 3.878 0 0 1-.083-.243 6.2 4.733 0 0 1-.04-.13 3.878 3.878 0 0 1-.075-.309 6.2 4.733 0 0 1 0-.007l.747.62c.187.926.72 1.91 1.57 2.144 1.128.312 2.423-.807 2.883-1.763h1.483c.458.956 1.752 2.074 2.88 1.763.859-.236 1.399-1.243 1.579-2.179l1.167-.971zm-1.538.235c.143 0 .26.134.26.3v.532c0 .166-.117.3-.26.3-.14 0-.254-.134-.254-.3v-.532c0-.165.114-.3.254-.3zm-4.832 1.629l-.009.003c-.696.343-1.26 1.104-1.258 1.7 0 .594.562.799 1.258.455l.01-.003.007.003c.694.343 1.258.14 1.258-.456 0-.595-.564-1.355-1.258-1.698l-.006-.003-.002-.001zm-5.954 2.487a3.094 3.094 0 0 0 .756.86 40.583 40.583 0 0 0-2.687 1.974 1.047 1.086 60 0 1-.447 1.391 1.047 1.086 60 0 1-1.465-.363 1.047 1.086 60 0 1-.03-.969 1.047 1.086 60 0 1-.823-.51 1.047 1.086 60 0 1 .416-1.45 1.047 1.086 60 0 1 1.43.31 40.443 40.443 0 0 0 2.85-1.243zm12.287 0a40.538 40.538 0 0 0 2.852 1.243 1.086 1.047 30 0 1 1.429-.31 1.086 1.047 30 0 1 .418 1.45 1.086 1.047 30 0 1-.826.51 1.086 1.047 30 0 1-.032.97 1.086 1.047 30 0 1-1.463.362 1.086 1.047 30 0 1-.447-1.39 40.61 40.61 0 0 0-2.688-1.976 3.09 3.09 0 0 0 .757-.859zm-13.617 6.25a.313.313 0 0 0-.186.18c-.06.132-.09.356-.09.68 0 .325.03.552.09.685a.313.313 0 0 0 .306.2c.141 0 .242-.066.303-.2.06-.133.09-.36.09-.686 0-.323-.03-.547-.09-.68a.31.31 0 0 0-.183-.18h-.24zm2.451 0a.313.313 0 0 0-.184.18c-.06.132-.09.356-.09.68 0 .325.03.552.09.685a.313.313 0 0 0 .306.2.312.312 0 0 0 .303-.2c.06-.133.092-.36.092-.686 0-.323-.032-.547-.092-.68a.31.31 0 0 0-.183-.18h-.242zm9.634 0a.313.313 0 0 0-.186.18c-.058.132-.09.356-.09.68 0 .325.032.552.09.685a.313.313 0 0 0 .305.2.312.312 0 0 0 .304-.2c.063-.133.092-.36.092-.686 0-.323-.031-.547-.092-.68a.31.31 0 0 0-.18-.18h-.243zm-2.263.121l-.727 1.077h.727v-1.077zm5.16.05a.72.72 0 0 1 .587.283c.151.19.228.432.228.73 0 .297-.077.54-.228.73a.72.72 0 0 1-.587.284.77.77 0 0 1-.357-.08.884.884 0 0 1-.28-.25v1.013h-.617V28.93h.616v.283a.836.836 0 0 1 .28-.248.76.76 0 0 1 .358-.08zm-11.097.045h.654l.393.574.4-.574h.653l-.695.94.73.99h-.653l-.434-.61-.43.61h-.652l.73-.988-.696-.942zm12.163 0h.651l.394.574.4-.574h.653l-.696.94.73.99h-.653l-.431-.61-.431.61h-.651l.73-.988-.696-.942zm-1.328.402a.355.355 0 0 0-.273.146c-.068.098-.103.238-.103.42s.035.323.103.421a.356.356 0 0 0 .307.143.348.348 0 0 0 .302-.145c.069-.096.103-.236.103-.418 0-.186-.034-.326-.103-.421s-.172-.146-.302-.146a.355.355 0 0 0-.034 0z" fill="#82ad96"/></svg>