<svg xmlns="http://www.w3.org/2000/svg" viewBox="0 0 33 33"><path d="M6.325 0a2.885 3.556 0 0 0-2.91 3.73l.331 10.748a3.165 3.901 0 0 0 3.146 3.729h21.953a2.885 3.556 0 0 0 2.911-3.728l-.332-10.75a3.163 3.898 0 0 0-3.143-3.73zm3.751 3.032h14.643a2.107 2.597 0 0 1 2.095 2.487l.223 7.17a1.924 2.371 0 0 1-1.942 2.485H10.456a2.11 2.601 0 0 1-2.099-2.485l-.222-7.17a1.923 2.37 0 0 1 1.942-2.486zM7.943 21.91c-1.78 0-3.654-1.13-4.202-.01l-3.59 7.312C-.398 30.333.591 33 2.37 33h21.481c1.778 0 3.652-2.668 4.202-3.788l4.863-8.328c.55-1.122-1.713 1.027-3.492 1.027zm-.131-1.024H9.25c.506 0 .767.254.585.569l-.683 1.184c-.181.314-.733.567-1.238.567H6.47c-.505 0-.766-.251-.585-.567l.683-1.184c.181-.314.735-.57 1.24-.57zm4.985 0h1.437c.507 0 .768.254.586.569l-.683 1.184c-.18.314-.735.565-1.24.565h-1.439c-.506 0-.767-.25-.585-.565l.683-1.184c.181-.314.735-.57 1.24-.57zm4.985 0h1.438c.506 0 .768.254.586.569l-.68 1.184c-.182.314-.736.565-1.242.565h-1.437c-.507 0-.768-.25-.586-.565l.68-1.184c.181-.314.736-.57 1.241-.57zm4.989 0h1.437c.506 0 .767.254.586.569l-.683 1.184c-.181.314-.735.565-1.24.565h-1.44c-.506 0-.766-.25-.585-.565l.683-1.184c.181-.314.735-.57 1.242-.57zM8.666 24.41h1.437c.506 0 .767.252.586.568l-.683 1.181c-.182.314-.733.568-1.238.568H7.326c-.506 0-.766-.254-.585-.568l.682-1.181c.182-.314.735-.57 1.242-.57zm4.984 0h1.438c.507 0 .768.252.586.568l-.683 1.181c-.18.314-.735.568-1.241.568h-1.438c-.506 0-.767-.254-.586-.568l.683-1.181c.182-.314.735-.57 1.241-.57zm4.986 0h1.438c.506 0 .768.252.586.568l-.68 1.181c-.183.314-.736.568-1.242.568h-1.44c-.506 0-.766-.254-.585-.568l.681-1.181c.18-.314.735-.57 1.241-.57zm4.987 0h1.44c.505 0 .766.252.584.568l-.683 1.181c-.18.314-.734.568-1.241.568h-1.438c-.506 0-.767-.254-.586-.568l.683-1.181c.182-.314.735-.57 1.241-.57zM8.574 27.777h12.771c.508 0 .769.254.584.569l-.698 1.181c-.186.314-.741.568-1.248.568H7.21c-.507 0-.769-.254-.584-.568l.698-1.181c.186-.314.744-.57 1.25-.57zm-4.543.017h1.436c.506 0 .767.25.586.566l-.683 1.185c-.182.314-.735.57-1.241.57H2.69c-.506 0-.764-.254-.583-.569l.68-1.184c.182-.316.736-.567 1.243-.567zm20.462 0h1.44c.506 0 .766.25.586.566l-.683 1.185c-.182.313-.736.567-1.243.567h-1.435c-.506 0-.769-.254-.588-.567l.683-1.185c.182-.314.733-.566 1.239-.566z" fill="#90a4ae"/></svg>