<svg xmlns="http://www.w3.org/2000/svg" version="1.1" viewBox="0 0 33 33">
 <path style="stroke-width:1.2852;fill:#ff8000" d="m6.3255 0.00019348a2.8848 3.5557 0 0 0 -2.9114 3.7297l0.3323 10.748a3.1649 3.901 0 0 0 3.1452 3.729h21.953a2.8848 3.5557 0 0 0 2.9114 -3.7283l-0.332-10.75a3.1626 3.8981 0 0 0 -3.143 -3.7288zm3.7505 3.032h14.643a2.1069 2.5968 0 0 1 2.0953 2.487l0.22226 7.1698a1.924 2.3714 0 0 1 -1.9413 2.4855h-14.639a2.1103 2.6011 0 0 1 -2.0988 -2.485l-0.2223-7.1712a1.9228 2.37 0 0 1 1.9421 -2.4856zm-2.1333 18.877c-1.7793 0-3.6534-1.1301-4.2022-0.01l-3.5885 7.313c-0.5499 1.121 0.43871 3.788 2.218 3.788h21.481c1.7781 0 3.6523-2.6682 4.2022-3.7882l4.8632-8.3284c0.54987-1.1215-1.7133 1.0273-3.4925 1.0273zm-0.13081-1.0245h1.4378c0.50588 0 0.7675 0.25398 0.58575 0.56931l-0.68299 1.1843c-0.18175 0.3139-0.73393 0.56645-1.2386 0.56645h-1.4424c-0.50588 0-0.76634-0.25112-0.58575-0.56645l0.68299-1.1843c0.18175-0.3139 0.73509-0.56931 1.241-0.56931zm4.9847 0h1.4378c0.50704 0 0.7675 0.25398 0.58575 0.56931l-0.68299 1.1843c-0.18059 0.3139-0.73509 0.56503-1.241 0.56503h-1.4378c-0.50588 0-0.7675-0.25112-0.58576-0.56503l0.683-1.1843c0.18175-0.3139 0.73509-0.56931 1.241-0.56931zm4.9859 0h1.4378c0.50588 0 0.7675 0.25398 0.58575 0.56931l-0.68068 1.1843c-0.18175 0.3139-0.73509 0.56503-1.241 0.56503h-1.4378c-0.50704 0-0.7675-0.25112-0.58575-0.56503l0.68068-1.1843c0.18059-0.3139 0.73509-0.56931 1.241-0.56931zm4.9882 0h1.4378c0.50588 0 0.76634 0.25398 0.58576 0.56931l-0.68299 1.1843c-0.18175 0.3139-0.73509 0.56503-1.241 0.56503h-1.4389c-0.50588 0-0.76634-0.25112-0.58575-0.56503l0.68299-1.1843c0.18175-0.3139 0.73509-0.56931 1.2421-0.56931zm-14.105 3.525h1.4378c0.50588 0 0.76634 0.25255 0.58575 0.56788l-0.68299 1.1814c-0.18175 0.3139-0.73277 0.56788-1.2387 0.56788h-1.4412c-0.50588 0-0.76634-0.25398-0.58575-0.56788l0.6827-1.181c0.18175-0.3139 0.73509-0.56931 1.2421-0.56931zm4.9847 0h1.4378c0.50704 0 0.7675 0.25255 0.58576 0.56788l-0.683 1.1814c-0.18059 0.3139-0.73509 0.56788-1.241 0.56788h-1.4378c-0.50588 0-0.7675-0.25398-0.58575-0.56788l0.68299-1.1814c0.18175-0.3139 0.73509-0.56931 1.241-0.56931zm4.9859 0h1.4378c0.50588 0 0.7675 0.25255 0.58576 0.56788l-0.68068 1.1814c-0.18175 0.3139-0.73509 0.56788-1.241 0.56788h-1.4401c-0.50588 0-0.76634-0.25398-0.5846-0.56788l0.68068-1.1814c0.18059-0.3139 0.73509-0.56931 1.241-0.56931zm4.987 0h1.4389c0.50588 0 0.76634 0.25255 0.5846 0.56788l-0.683 1.1814c-0.18059 0.3139-0.73393 0.56788-1.241 0.56788h-1.438c-0.50588 0-0.76634-0.25398-0.58575-0.56788l0.68299-1.1814c0.18175-0.3139 0.73509-0.56931 1.241-0.56931zm-15.049 3.367h12.771c0.50819 0 0.76866 0.25398 0.58344 0.56931l-0.69804 1.1814c-0.18522 0.3139-0.74088 0.56788-1.2479 0.56788h-12.772c-0.50704 0-0.76866-0.25398-0.58344-0.56788l0.69804-1.1814c0.18522-0.3139 0.74319-0.56931 1.2502-0.56931zm-4.5436 0.01712h1.4366c0.50588 0 0.76634 0.25112 0.58575 0.56645l-0.6831 1.185c-0.1817 0.314-0.7351 0.57-1.241 0.57h-1.4377c-0.50588 0-0.76403-0.25398-0.58344-0.56931l0.68068-1.1843c0.18175-0.31533 0.73509-0.56645 1.2421-0.56645zm20.462 0h1.4401c0.50588 0 0.76634 0.25112 0.58575 0.56645l-0.68299 1.1843c-0.18175 0.3139-0.73509 0.56788-1.2421 0.56788h-1.4354c-0.50588 0-0.76866-0.25398-0.58807-0.56788l0.68299-1.1843c0.18175-0.3139 0.73277-0.56645 1.2387-0.56645z"/>
</svg>
