<svg xmlns="http://www.w3.org/2000/svg" height="50" width="50" viewBox="0 0 10.583 10.583"><path d="M5.292 0A5.292 5.292 0 0 0 0 5.29a5.292 5.292 0 0 0 5.292 5.29 5.292 5.292 0 0 0 5.291-5.29A5.292 5.292 0 0 0 5.292 0zM4.106.963a.712 2.099 0 0 1 .711 2.098.712 2.099 0 0 1-.711 2.099.712 2.099 0 0 1-.712-2.099.712 2.099 0 0 1 .712-2.098zm2.372 0a.712 2.099 0 0 1 .712 2.098.712 2.099 0 0 1-.712 2.099.712 2.099 0 0 1-.712-2.099.712 2.099 0 0 1 .712-2.098zM5.292 6.291a1.587 1.113 0 0 1 1.587 1.114 1.587 1.113 0 0 1-1.587 1.113 1.587 1.113 0 0 1-1.588-1.113A1.587 1.113 0 0 1 5.292 6.29z" fill="#90a4ae"/></svg>