<svg xmlns="http://www.w3.org/2000/svg" height="50" width="50"><path d="M25.02.002C6.199.002 5.916 16.857 5.916 16.857v2.408L.913 24.323c-1.032 1.044-1.217 2.979-.41 4.34l.767 1.296c.805 1.36 2.284 1.618 3.318.574l1.328-1.347V50h2.706l4.302-8.729 4.306 8.73h3.267l4.306-8.73 4.306 8.73h3.265l4.307-8.73 4.306 8.73h2.973V29.062l1.454 1.47c1.032 1.044 2.51.786 3.316-.574l.768-1.294c.806-1.363.623-3.3-.41-4.342l-5.128-5.186v-1.784S43.842 0 25.02 0zM18.678 12.48c2.528 0 4.581 2.229 4.581 4.98 0 2.752-2.05 4.984-4.581 4.984s-4.584-2.233-4.582-4.985c0-2.75 2.052-4.98 4.582-4.979zm12.632 0c2.528 0 4.58 2.229 4.581 4.98 0 2.752-2.05 4.984-4.581 4.984s-4.585-2.233-4.584-4.985c0-2.75 2.052-4.98 4.584-4.979zm-6.311 14.63a2.915 3.968 0 0 1 2.916 3.968A2.915 3.968 0 0 1 25 35.051a2.915 3.968 0 0 1-2.914-3.97A2.915 3.968 0 0 1 25 27.11z" fill="#90a4ae"/></svg>