<svg xmlns="http://www.w3.org/2000/svg" height="50" width="50" version="1.1" viewBox="0 0 10.583333 10.583334">
 <g transform="translate(0 -286.42)">
  <path style="stroke-width:.28903;fill:#90a4ae" d="m5.2917 286.42a5.2918 5.2918 0 0 0 -5.2917 5.29 5.2918 5.2918 0 0 0 5.2917 5.29 5.2918 5.2918 0 0 0 5.2913 -5.29 5.2918 5.2918 0 0 0 -5.2913 -5.29zm-1.186 0.96304a0.71165 2.0985 0 0 1 0.71128 2.0983 0.71165 2.0985 0 0 1 -0.71128 2.0983 0.71165 2.0985 0 0 1 -0.71184 -2.0983 0.71165 2.0985 0 0 1 0.71184 -2.0983zm2.372 0a0.71165 2.0985 0 0 1 0.71184 2.0983 0.71165 2.0985 0 0 1 -0.71184 2.0983 0.71165 2.0985 0 0 1 -0.71184 -2.0983 0.71165 2.0985 0 0 1 0.71184 -2.0983zm-1.186 5.3284a1.5875 1.1131 0 0 1 1.5874 1.1132 1.5875 1.1131 0 0 1 -1.5874 1.1132 1.5875 1.1131 0 0 1 -1.5874 -1.1132 1.5875 1.1131 0 0 1 1.5874 -1.1132z"/>
 </g>
</svg>
