<svg xmlns="http://www.w3.org/2000/svg" height="50" width="50" version="1.1" viewBox="0 0 50 50">
 <path style="stroke-width:1.8461;fill:#e0e0e0" d="m25.02 0.001955c-18.821 0-19.104 16.855-19.104 16.855v2.4084l-5.0034 5.0573c-1.0321 1.0439-1.2169 2.9792-0.40969 4.3398l0.76707 1.2961c0.80543 1.3606 2.2838 1.6186 3.3176 0.57474l1.3283-1.347v20.814h2.7057l4.3024-8.729 4.306 8.729h3.267l4.306-8.729 4.306 8.729h3.2653l4.307-8.729 4.306 8.729h2.9724v-20.937l1.454 1.4701c1.0321 1.0439 2.5104 0.78586 3.3159-0.57474l0.76882-1.2941c0.80543-1.3626 0.62238-3.2998-0.40969-4.3418l-5.129-5.186v-1.784s-0.118-17.352-18.939-17.352zm-6.3423 12.478c2.5279 0 4.5815 2.2286 4.5815 4.9791 0 2.7525-2.0502 4.9849-4.5815 4.9849s-4.5833-2.2325-4.5815-4.9849c0-2.7505 2.0519-4.981 4.5815-4.9791zm12.632 0c2.5279 0 4.5798 2.2286 4.5815 4.9791 0 2.7525-2.0502 4.9849-4.5815 4.9849s-4.585-2.2325-4.5833-4.9849c0-2.7505 2.0519-4.981 4.5833-4.9791zm-6.3109 14.63a2.9149 3.9684 0 0 1 2.9166 3.9684 2.9149 3.9684 0 0 1 -2.9149 3.9723 2.9149 3.9684 0 0 1 -2.9149 -3.9704 2.9149 3.9684 0 0 1 2.9149 -3.9704z"/>
</svg>
