<svg xmlns="http://www.w3.org/2000/svg" height="50" width="50" viewBox="0 0 10.583 10.583"><path d="M3.325 7.287h3.934c.291 0 .527.295.527.661v1.79a.525.66 0 0 1-.527.661H3.324a.525.66 0 0 1-.527-.662V7.948c0-.365.236-.661.528-.661zm2.652-3.551h3.935a.525.66 0 0 1 .527.662v1.787a.525.66 0 0 1-.527.664H5.977a.525.66 0 0 1-.527-.664V4.398c0-.367.236-.663.527-.663zm-5.306 0h3.935a.525.66 0 0 1 .527.662v1.787a.525.66 0 0 1-.527.663H.67a.525.66 0 0 1-.527-.663V4.398a.525.66 0 0 1 .527-.664zM3.325.184h3.934c.291 0 .527.294.527.662v1.789a.525.66 0 0 1-.527.661H3.324a.525.66 0 0 1-.527-.661V.845a.525.66 0 0 1 .527-.66z" fill="#90a4ae"/></svg>