<svg xmlns="http://www.w3.org/2000/svg" height="64" width="64" viewBox="0 0 16.933 16.933"><path d="M1.829 0C.815 0 0 1.877 0 4.213c0 .058.006.11.008.166h16.92c0-.058.005-.11.005-.166C16.933 1.877 16.12 0 15.106 0zm-.772 5.845A1.055 1.512 0 0 0 0 7.363V9.57c0 .841.47 1.518 1.059 1.518h14.815c.586 0 1.059-.677 1.059-1.518V7.363a1.057 1.515 0 0 0-1.06-1.518zM.008 12.554c0 .055-.008.108-.008.166 0 2.336.815 4.213 1.829 4.213h13.277c1.012 0 1.826-1.88 1.826-4.213 0-.058-.006-.11-.006-.169z" fill="#90a4ae" fill-rule="evenodd"/></svg>