<svg xmlns="http://www.w3.org/2000/svg" height="64" width="64" version="1.1" viewBox="0 0 16.933345 16.933161">
 <path style="stroke-width:2.4383;fill:#90a4ae;fill-rule:evenodd" d="m1.8288-0.000047838c-1.0142 0-1.8288 1.8771-1.8288 4.2129 0 0.058391 0.006105 0.11094 0.008141 0.16642h16.919c0-0.058391 0.0061-0.11094 0.0061-0.16642 0-2.3358-0.81405-4.2129-1.827-4.2129zm-0.7719 5.8448a1.0549 1.5123 0 0 0 -1.0569 1.5182v2.2072c0.0000079048 0.8408 0.47042 1.5178 1.0589 1.5178h14.815c0.58649 0 1.0589-0.67732 1.0589-1.5181v-2.2069a1.0569 1.5152 0 0 0 -1.059 -1.5182zm-1.0488 6.7092c0 0.05547-0.008141 0.10802-0.008141 0.16642 0 2.3356 0.81458 4.2129 1.8287 4.2129h13.277c1.0121 0 1.8267-1.8802 1.8267-4.2129 0-0.05839-0.0061-0.11094-0.0061-0.16934z"/>
</svg>
