<svg xmlns="http://www.w3.org/2000/svg" viewBox="0 0 33 33"><path d="M16.5.5a16 16 0 0 0-16 16 16 16 0 0 0 16 16 16 16 0 0 0 16-16 16 16 0 0 0-16-16zm-3.869 7.75a2.118 4.412 0 0 1 2.12 4.413 2.118 4.412 0 0 1-2.12 4.41 2.118 4.412 0 0 1-2.117-4.41A2.118 4.412 0 0 1 12.63 8.25zm7.647 0a2.118 4.412 0 0 1 2.12 4.413 2.118 4.412 0 0 1-2.118 4.41 2.118 4.412 0 0 1-2.12-4.41 2.118 4.412 0 0 1 2.12-4.412zM5.719 18.289h3.315a8.556 8.556 0 0 0 7.463 4.39 8.556 8.556 0 0 0 7.472-4.39h3.314a11.566 11.566 0 0 1-10.787 7.398 11.566 11.566 0 0 1-10.778-7.398z" fill="#ff9000" fill-rule="evenodd"/></svg>