<svg xmlns="http://www.w3.org/2000/svg" version="1.1" viewBox="0 0 33 33">
 <path style="stroke-width:1.1276;fill:#ff9000;fill-rule:evenodd" d="m16.5 0.5a16 16 0 0 0 -16 16 16 16 0 0 0 16 16 16 16 0 0 0 16 -16 16 16 0 0 0 -16 -16zm-3.8686 7.7508a2.1175 4.4121 0 0 1 2.1187 4.4121 2.1175 4.4121 0 0 1 -2.1187 4.4099 2.1175 4.4121 0 0 1 -2.1175 -4.4099 2.1175 4.4121 0 0 1 2.1175 -4.4121zm7.6471 0a2.1175 4.4121 0 0 1 2.1198 4.4121 2.1175 4.4121 0 0 1 -2.1187 4.4099 2.1175 4.4121 0 0 1 -2.1187 -4.4099 2.1175 4.4121 0 0 1 2.1198 -4.4121zm-14.561 10.037h3.315a8.5559 8.5559 0 0 0 7.4633 4.3907 8.5559 8.5559 0 0 0 7.4723 -4.3907h3.3139a11.566 11.566 0 0 1 -10.787 7.398 11.566 11.566 0 0 1 -10.778 -7.398z"/>
</svg>
